<svg viewBox="0 0 512 512" xml:space="preserve" xmlns="http://www.w3.org/2000/svg"><!--! Font Awesome Pro 6.1.1 by @fontawesome - https://fontawesome.com License - https://fontawesome.com/license (Commercial License) Copyright 2022 Fonticons, Inc.--><path d="M0 185.824v-5.8c0-69.9 50.52-129.52 119.4-141 44.7-7.59 92 7.27 124.6 39.92l12 11.98 11.1-11.98c33.5-32.65 79.9-47.51 125.5-39.92 68.9 11.48 119.4 71.1 119.4 141v5.8c0 41.5-17.2 81.2-47.6 109.5l-180.7 168.7c-7.5 7-17.4 10.9-27.7 10.9s-20.2-3.9-27.7-10.9l-180.71-168.7c-30.36-28.3-47.59-68-47.59-109.5z" style="fill:#00a4e0;fill-opacity:1"/><path d="M56 201.175v-4.531c0-54.61 39.469-101.188 93.281-110.157 34.922-5.93 71.875 5.68 97.344 31.188l9.375 9.36 8.672-9.36c26.172-25.508 62.422-37.117 98.047-31.188C416.547 95.457 456 142.034 456 196.644v4.53c0 32.423-13.438 63.438-37.187 85.548L277.64 418.519A31.712 31.712 0 0 1 256 427.034a31.712 31.712 0 0 1-21.64-8.515L93.18 286.722C69.46 264.612 56 233.597 56 201.175Z" style="fill:#e6008b;fill-opacity:1;stroke-width:.781246"/><path d="M122 219.267v-3.036c0-36.588 26.444-67.795 62.498-73.804 23.398-3.973 48.157 3.805 65.22 20.895l6.282 6.27 5.81-6.27c17.535-17.09 41.823-24.868 65.692-20.895C363.566 148.436 390 179.643 390 216.23v3.036c0 21.723-9.003 42.503-24.916 57.317L270.5 364.887A21.247 21.247 0 0 1 256 370.593a21.247 21.247 0 0 1-14.5-5.706l-94.59-88.303C131.02 261.77 122 240.99 122 219.267z" style="fill:#2f308c;fill-opacity:1;stroke-width:.523438"/></svg>